# xmcd
#
# Track frame offsets:
#	150
#	16965
#	32225
#	49598
#	64665
#	77253
#	101250
#	115758
#	141365
#	161543
#	178465
#	194140
#	218568
#	233545
#
# Disc length: 3283 seconds
#
# Revision: 1
# Processed by: cddbd v1.5.2PL0 Copyright (c) Steve Scherf et al.
# Submitted via: audiograbber 1.83.01
#
DISCID=b60cd10e
DTITLE=Ray Pérez - Lo Mejor - Lo Mejor
DYEAR=1978
DGENRE=Salsa
TTITLE0=Pa Puerto Rico
TTITLE1=No salgas de tu barrio
TTITLE2=Rio Manzanarez
TTITLE3=Echatelo al hombro
TTITLE4=Oye mi Orquesta
TTITLE5=Emae Mae
TTITLE6=Pa´l 23
TTITLE7=Descarga cutricentenaria
TTITLE8=El alacran
TTITLE9=Feliz Cumpleaños
TTITLE10=Rompelo
TTITLE11=SonMontuno
TTITLE12=Ronda del Guaguanco
TTITLE13=Asi mueren los valientes
EXTD=
EXTT0=
EXTT1=
EXTT2=
EXTT3=
EXTT4=
EXTT5=
EXTT6=
EXTT7=
EXTT8=
EXTT9=
EXTT10=
EXTT11=
EXTT12=
EXTT13=
PLAYORDER=
